# AST/ASF file generated using VICON BodyLanguage
# -----------------------------------------------
:version 1.10
:name VICON
:units
  mass 1.0
  length 0.45
  angle deg
:documentation
   .ast/.asf automatically generated from VICON data using
   VICON BodyBuilder and BodyLanguage model FoxedUp or BRILLIANT.MOD
:root
   order TX TY TZ RX RY RZ
   axis XYZ
   position 0 0 0  
   orientation 0 0 0 
:bonedata
  begin
     id 1 
     name lhipjoint
     direction 0.646657 -0.683706 0.338203 
     length 2.4948 
     axis 0 0 0  XYZ
  end
  begin
     id 2 
     name lfemur
     direction 0.34202 -0.939693 0  
     length 6.79491  
     axis 0 0 20  XYZ
    dof rx ry rz
    limits (-160.0 20.0)
           (-70.0 70.0)
           (-60.0 70.0)
  end
  begin
     id 3 
     name ltibia
     direction 0.34202 -0.939693 0   
     length 7.56807   
     axis 0 0 20   XYZ
    dof rx
    limits (-10.0 170.0)
  end
  begin
     id 4 
     name lfoot
     direction 0.0679796 -0.186772 0.980048   
     length 2.53018   
     axis -90 7.62852e-016 20   XYZ
    dof rx rz
    limits (-45.0 90.0)
           (-70.0 20.0)
  end
  begin
     id 5 
     name ltoes
     direction 1.53625e-011 -4.21881e-011 1   
     length 1.26912   
     axis -90 7.62852e-016 20   XYZ
    dof rx
    limits (-90.0 20.0)
  end
  begin
     id 6 
     name rhipjoint
     direction -0.618868 -0.704065 0.348274   
     length 2.42265  
     axis 0 0 0  XYZ 
  end
  begin
     id 7 
     name rfemur
     direction -0.34202 -0.939693 0   
     length 6.73814   
     axis 0 0 -20   XYZ
    dof rx ry rz
    limits (-160.0 20.0)
           (-70.0 70.0)
           (-70.0 60.0)
  end
  begin
     id 8 
     name rtibia
     direction -0.34202 -0.939693 0   
     length 7.66799   
     axis 0 0 -20   XYZ
    dof rx
    limits (-10.0 170.0)
 end
 begin
     id 9 
     name rfoot
     direction -0.0727352 -0.199838 0.977125   
     length 2.57224  
     axis -90 -7.62852e-016 -20   XYZ
    dof rx rz
    limits (-45.0 90.0)
           (-20.0 70.0)
  end
  begin
     id 10 
     name rtoes
     direction -1.53501e-011 -4.21858e-011 1   
     length 1.28858   
     axis -90 -7.62852e-016 -20   XYZ
    dof rx
    limits (-90.0 20.0)
  end
  begin
     id 11 
     name lowerback
     direction -0.0172471 0.995767 -0.0902851   
     length 2.20206   
     axis 0 0 0   XYZ
    dof rx ry rz
    limits (-20.0 45.0)
           (-30.0 30.0)
           (-30.0 30.0)
  end
  begin
     id 12 
     name upperback
     direction -0.000110737 0.999714 0.0239043   
     length 2.19523   
     axis 0 0 0   XYZ
    dof rx ry rz
    limits (-20.0 45.0)
           (-30.0 30.0)
           (-30.0 30.0)
  end
  begin
     id 13 
     name thorax
     direction 0.00704869 0.997783 0.0661741   
     length 2.21977   
     axis 0 0 0   XYZ
    dof rx ry rz
    limits (-20.0 45.0)
           (-30.0 30.0)
           (-30.0 30.0)
  end
  begin
     id 14 
     name lowerneck
     direction -0.00407501 0.995527 0.0943846   
     length 1.83142   
     axis 0 0 0   XYZ
    dof rx ry rz
    limits (-20.0 45.0)
           (-30.0 30.0)
           (-30.0 30.0)
  end
  begin
     id 15 
     name upperneck
     direction 0.0640586 0.986486 -0.150807   
     length 1.84616   
     axis 0 0 0   XYZ
    dof rx ry rz
    limits (-20.0 45.0)
           (-30.0 30.0)
           (-30.0 30.0)
  end
  begin
     id 16
     name head
     direction 0.0188017 0.99791 -0.0618239  
     length 1.85932  
     axis 0 0 0   XYZ
    dof rx ry rz
    limits (-20.0 45.0)
           (-30.0 30.0)
           (-30.0 30.0)
  end
  begin
     id 17 
     name lclavicle
     direction 0.976074 0.206905 0.066852  
     length 3.81043  
     axis 0 0 0   XYZ
    dof ry rz
    limits (-20.0 10.0)
           (0.0 20.0)
  end
  begin
     id 18 
     name lhumerus
     direction 1 -4.48971e-011 1.86916e-027   
     length 5.37587   
     axis 180 -30 -90   XYZ
    dof rx ry rz
    limits (-60.0 90.0)
           (-90.0 90.0)
           (-90.0 90.0)
  end
  begin
     id 19
     name lradius
     direction 1 -4.48968e-011 1.69187e-027   
     length 3.35977   
     axis 180 -30 -90   XYZ
    dof rx
    limits (-10.0 170.0)
  end
  begin
     id 20
     name lwrist
     direction 1 -4.48968e-011 5.8978e-027   
     length 1.67988   
     axis -3.27506e-015 90 90   XYZ
    dof ry
    limits (-180.0 0.0)
 end
  begin
     id 21 
     name lhand
     direction 1 -4.49028e-011 1.18071e-026   
     length 0.561859   
     axis -7.52654e-015 90 90   XYZ
    dof rx rz
    limits (-90.0 90.0)
           (-45.0 45.0)
  end
  begin
     id 22 
     name lfingers
     direction 1 -4.48927e-011 2.35758e-026   
     length 0.452985   
     axis -1.50534e-014 90 90   XYZ
    dof rx
    limits (0.0 90.0)
  end
  begin
     id 23
     name lthumb
     direction 0.707107 -6.34898e-011 0.707107   
     length 0.650399   
     axis -90 45 5.69224e-014   XYZ
    dof rx rz
    limits (-45.0 45.0)
           (-45.0 45.0)
  end
  begin
     id 24 
     name rclavicle
     direction -0.988403 0.151789 0.00439714   
     length 3.6942  
     axis 0 0 0   XYZ 
    dof ry rz
    limits (-10.0 20.0)
           (-20.0 0.0)
  end
  begin
     id 25 
     name rhumerus
     direction -1 -4.48978e-011 1.62495e-027  
     length 5.22819   
     axis 180 30 90   XYZ
    dof rx ry rz
    limits (-90.0 60.0)
           (-90.0 90.0)
           (-90.0 90.0)
  end
  begin
     id 26 
     name rradius
     direction -1 -4.48961e-011 3.47796e-027   
     length 3.40764   
     axis 180 30 90   XYZ
    dof rx
    limits (-10.0 170.0)
  end
  begin
     id 27 
     name rwrist
     direction -1 -4.48949e-011 5.89602e-027   
     length 1.70382   
     axis -3.27506e-015 -90 -90   XYZ
    dof ry
    limits (-180.0 0.0)
  end
  begin
     id 28
     name rhand
     direction -1 -4.48977e-011 1.17973e-026   
     length 0.583255   
     axis -7.52654e-015 -90 -90   XYZ
    dof rx rz
    limits (-90.0 90.0)
           (-45.0 45.0)
  end
  begin
     id 29
     name rfingers
     direction -1 -4.49099e-011 2.36408e-026   
     length 0.470235   
     axis -1.50534e-014 -90 -90   XYZ
    dof rx
    limits (0.0 90.0)
  end
  begin
     id 30
     name rthumb
     direction -0.707107 -6.35011e-011 0.707107   
     length 0.675167   
     axis -90 -45 -5.69224e-014   XYZ
    dof rx rz
    limits (-45.0 45.0)
           (-45.0 45.0)
  end
:hierarchy
  begin
    root lhipjoint rhipjoint lowerback
    lhipjoint lfemur
    lfemur ltibia
    ltibia lfoot
    lfoot ltoes
    rhipjoint rfemur
    rfemur rtibia
    rtibia rfoot
    rfoot rtoes
    lowerback upperback
    upperback thorax
    thorax lowerneck lclavicle rclavicle
    lowerneck upperneck
    upperneck head
    lclavicle lhumerus
    lhumerus lradius
    lradius lwrist
    lwrist lhand lthumb
    lhand lfingers
    rclavicle rhumerus
    rhumerus rradius
    rradius rwrist
    rwrist rhand rthumb
    rhand rfingers
  end

#!OML:ASF G:\JayActor3\Patient Classification 1\Patient 1\Session 2\male.ASF
:FULLY-SPECIFIED
:DEGREES
1
root 49.4537 16.7832 -7.50787 162.933 -87.771 -164.226
lowerback -1.462 0.712424 -0.0326267
upperback 4.5118 0.8507 0.802869
thorax 5.47143 0.373159 0.899798
lowerneck -14.9061 -3.35018 -2.58252
upperneck 20.6566 -5.87125 6.74686
head 9.2429 -2.32556 1.99775
rclavicle 5.98839e-015 -3.18055e-015
rhumerus -28.0072 -10.9153 -82.8695
rradius 22.8463
rwrist 3.48066
rhand -26.6835 4.90037
rfingers 7.12502
rthumb -0.114414 -25.0793
lclavicle 5.98839e-015 -3.18055e-015
lhumerus -25.1292 -0.414325 89.2985
lradius 27.5713
lwrist 8.57912
lhand -19.4255 18.4325
lfingers 7.12502
lthumb 6.89439 48.3003
rfemur -10.4606 1.68564 21.1386
rtibia 32.5251
rfoot -22.0233 -7.70686
rtoes 20.9404
lfemur -3.34475 3.38152 -17.8674
ltibia 19.2881
lfoot -11.5275 9.90844
ltoes -8.9798
2
root 49.4566 16.7832 -7.51141 163.32 -87.7956 -164.661
lowerback -1.4653 0.69227 -0.0450927
upperback 4.49594 0.823553 0.827438
thorax 5.45655 0.358791 0.930454
lowerneck -14.8156 -3.35742 -2.65549
upperneck 20.6536 -5.86898 6.76127
head 9.22735 -2.33134 2.0163
rclavicle -9.49197e-015 -5.96354e-016
rhumerus -28.115 -10.6955 -82.901
rradius 22.9551
rwrist 3.33472
rhand -26.5723 4.13218
rfingers 7.12502
rthumb -0.00699997 -25.8476
lclavicle -9.49197e-015 -5.96354e-016
lhumerus -25.2221 -0.257588 89.3172
lradius 27.3639
lwrist 8.6232
lhand -19.6296 18.1744
lfingers 7.12502
lthumb 6.69739 48.0485
rfemur -10.415 1.64845 21.125
rtibia 32.523
rfoot -22.0865 -7.72352
rtoes 20.7612
lfemur -3.27163 3.39741 -17.8764
ltibia 19.2377
lfoot -11.5133 9.88294
ltoes -8.97115
3
root 49.4602 16.7829 -7.51475 163.89 -87.8458 -165.264
lowerback -1.47575 0.66431 -0.0604537
upperback 4.43907 0.788485 0.835098
thorax 5.40298 0.3416 0.944449
lowerneck -14.5848 -3.32816 -2.71063
upperneck 20.6267 -5.82196 6.7748
head 9.17436 -2.31951 2.03884
rclavicle -5.04416e-015 4.37326e-015
rhumerus -28.2564 -10.5612 -82.9169
rradius 23.0255
rwrist 3.26535
rhand -26.5236 4.08581
rfingers 7.12502
rthumb 0.039995 -25.8939
lclavicle -5.04416e-015 4.37326e-015
lhumerus -25.3765 -0.101362 89.2896
lradius 27.1801
lwrist 8.51755
lhand -19.6169 18.2884
lfingers 7.12502
lthumb 6.70963 48.1621
rfemur -10.3868 1.62028 21.0972
rtibia 32.5282
rfoot -22.1018 -7.73379
rtoes 20.7101
lfemur -3.22508 3.37994 -17.9056
ltibia 19.1828
lfoot -11.4634 9.87581
ltoes -9.0799
4
root 49.4641 16.7828 -7.51793 164.897 -87.8725 -166.291
lowerback -1.50074 0.676812 -0.0892455
upperback 4.48225 0.805369 0.82932
thorax 5.4621 0.348112 0.956394
lowerneck -14.7588 -3.35439 -2.66128
upperneck 20.6494 -5.85792 6.735
head 9.2139 -2.33102 2.01034
rclavicle -3.3048e-015 -1.39149e-015
rhumerus -28.1911 -10.5152 -82.9703
rradius 23.1017
rwrist 3.13488
rhand -26.5596 4.23553
rfingers 7.12502
rthumb 0.00522444 -25.7442
lclavicle -3.3048e-015 -1.39149e-015
lhumerus -25.2678 -0.00839925 89.2538
lradius 26.9114
lwrist 8.37281
lhand -19.5654 18.2331
lfingers 7.12502
lthumb 6.75937 48.1052
rfemur -10.3775 1.59482 21.0549
rtibia 32.5338
rfoot -22.1338 -7.75185
rtoes 20.4681
lfemur -3.18854 3.35909 -17.9458
ltibia 19.128
lfoot -11.4367 9.88851
ltoes -9.02475
5
root 49.4676 16.7826 -7.52105 165.857 -87.9054 -167.28
lowerback -1.5171 0.674545 -0.111725
upperback 4.48257 0.803515 0.827326
thorax 5.47155 0.346289 0.967043
lowerneck -14.7675 -3.36231 -2.66328
upperneck 20.6645 -5.86741 6.72498
head 9.22098 -2.33623 2.00598
rclavicle 1.22501e-014 -1.39149e-015
rhumerus -28.2234 -10.4262 -83.0084
rradius 23.1839
rwrist 3.02689
rhand -26.5609 4.20602
rfingers 7.12502
rthumb 0.00404459 -25.7737
lclavicle 1.22501e-014 -1.39149e-015
lhumerus -25.2773 0.115621 89.2214
lradius 26.675
lwrist 8.25669
lhand -19.5699 18.2125
lfingers 7.12502
lthumb 6.755 48.0848
rfemur -10.3603 1.56007 21.014
rtibia 32.5442
rfoot -22.1518 -7.77365
rtoes 20.2449
lfemur -3.14082 3.3514 -17.9834
ltibia 19.0695
lfoot -11.401 9.88506
ltoes -9.03377
6
root 49.471 16.7824 -7.52399 166.94 -87.9372 -168.387
lowerback -1.53659 0.674792 -0.133129
upperback 4.48317 0.805241 0.820649
thorax 5.48311 0.346408 0.972508
lowerneck -14.7823 -3.37137 -2.65983
upperneck 20.6825 -5.88033 6.71627
head 9.23025 -2.3423 2.00065
rclavicle -1.73937e-015 -2.38542e-015
rhumerus -28.2534 -10.3508 -83.0484
rradius 23.2697
rwrist 2.91999
rhand -26.5756 4.22373
rfingers 7.12502
rthumb -0.0102065 -25.756
lclavicle -1.73937e-015 -2.38542e-015
lhumerus -25.2835 0.238421 89.1802
lradius 26.4345
lwrist 8.12874
lhand -19.5619 18.2162
lfingers 7.12502
lthumb 6.7627 48.0882
rfemur -10.3479 1.52258 20.9681
rtibia 32.557
rfoot -22.1615 -7.79068
rtoes 20.0313
lfemur -3.09666 3.3467 -18.0246
ltibia 19.0111
lfoot -11.3645 9.87818
ltoes -9.03515
